PathFileType	4	(X/Y/Z)	C:/Users/beibeiliu/ov580/test_trc/User3\out6_training_dense_right.trc
DataRate	CameraRate	NumFrames	NumMarkers	Units	OrigDataRate	OrigDataStartFrame	OrigNumFrames
120	120	22	19	mm	120	313	500
Frame#	Time	ThumbCMC			ThumbMCP			ThumbIP			ThumbTip			IndexMCP			IndexPIP			IndexTip			MiddleMCP			MiddlePIP			MiddleTip			RingMCP			RingPIP			RingTip			PinkyMCP			PinkyPIP			PinkyTip			BackHand1			BackHand2			BackHand3	
		X0	Y0	Z0	X1	Y1	Z1	X2	Y2	Z2	X3	Y3	Z3	X4	Y4	Z4	X5	Y5	Z5	X6	Y6	Z6	X7	Y7	Z7	X8	Y8	Z8	X9	Y9	Z9	X10	Y10	Z10	X11	Y11	Z11	X12	Y12	Z12	X13	Y13	Z13	X14	Y14	Z14	X15	Y15	Z15	X16	Y16	Z16	X17	Y17	Z17	X18	Y18	Z18	
312	2.6	193.582	-19.414	56.1891	206.979	-3.0797	34.106	215.248	14.5072	8.47106	210.608	28.9293	-11.0444	183.619	-1.19514	-22.3902	181.228	21.0832	-38.4073	178.294	43.3884	-46.6933	158.268	-13.2588	-29.5187	156.222	5.76766	-52.1181	152.114	31.9563	-69.7343	134.733	-15.8644	-22.9422	131.671	-1.7954	-41.7055	126.904	20.2696	-62.4858	112.421	-16.1665	-4.09675	102.883	-2.85205	-18.4974	88.0574	12.0916	-34.2831	138.928	-48.0064	26.1646	143.573	-54.3823	51.1951	176.137	-45.6522	35.7014	
313	2.60833	192.951	-18.6069	52.079	210.173	0.174644	34.0772	216.444	17.6656	9.80265	214.076	34.1923	-9.61678	180.109	-6.12076	-22.7815	185.258	17.8605	-41.7574	180.663	40.0337	-52.6225	153.403	-18.8696	-31.4357	153.597	-3.55183	-55.2764	152.485	17.6632	-79.4745	132.567	-19.1625	-19.3217	129.283	-5.23353	-42.6518	124.71	15.7801	-61.7562	111.583	-12.6648	-3.77552	104.941	3.90913	-19.2543	92.9128	21.2994	-28.4387	141.431	-44.105	23.2278	138.848	-55.6618	55.7252	172.831	-45.0276	36.8879	
314	2.61667	197.526	-17.2026	54.9523	207.32	3.30208	35.2143	210.732	22.9892	7.17715	208.696	39.3644	-9.30479	182.861	-8.35864	-26.936	186.17	8.55798	-45.9686	180.925	31.3616	-60.8454	156.45	-21.6726	-31.2607	155.888	-8.49476	-59.9717	149.253	7.26811	-82.2299	133.855	-18.4729	-21.5929	131.707	-4.95583	-43.2253	126.177	19.117	-62.833	116.043	-11.6213	-2.2646	107.493	8.28955	-16.4029	103.707	31.4631	-24.8183	138.611	-43.9466	23.2725	144.125	-52.1952	52.4094	175.92	-43.4169	36.6344	
315	2.625	194.337	-14.5253	54.8454	204.987	9.17823	35.0767	206.949	29.3775	10.9064	205.529	48.029	-6.77176	181.697	-12.1353	-25.5394	183.121	0.458996	-48.1308	183.554	24.0981	-70.2349	158.311	-23.4406	-29.1463	153.425	-13.5961	-59.5245	152.99	3.71822	-83.958	132.826	-18.4684	-23.8027	129.568	-4.46874	-42.8364	125.003	24.0617	-59.3786	113.327	-8.50954	-5.08438	109.542	13.5157	-14.3511	107.17	42.5798	-13.2039	141.512	-43.9632	22.96	143.184	-51.8915	54.5148	175.634	-43.7891	34.6934	
316	2.63333	195.219	-10.2352	53.8245	198.882	15.2327	31.5604	202.12	36.5887	12.5669	193.738	54.5395	-7.26866	185.957	-12.9792	-27.5478	188.505	-1.29701	-52.7038	183.983	14.1766	-73.1617	160.407	-24.0172	-30.8694	155.458	-17.5079	-56.6301	147.899	1.40345	-84.8975	135.816	-17.848	-22.6314	126.567	-2.07536	-44.3181	118.84	29.2688	-53.1632	114.775	-7.04663	-4.92136	109.295	13.2928	-12.1498	111.351	44.1453	-4.45823	143.039	-44.2249	27.9549	144.787	-53.6253	56.9258	179.192	-40.8285	34.9779	
317	2.64167	192.358	-3.26565	49.8675	196.152	24.2953	27.8671	190.872	45.9187	5.04076	175.31	54.5937	-8.20048	185.965	-15.8809	-26.5059	188.778	-8.35961	-50.5131	188.16	5.86053	-72.5404	158.315	-28.1786	-32.5369	151.941	-19.9435	-59.2577	144.792	2.13442	-84.8734	138.854	-20.4236	-19.2331	124.682	-0.737584	-44.306	120.201	31.151	-46.0141	113.892	-10.4333	-3.30582	109.761	14.8702	-10.6223	118.035	39.786	0.585913	142.635	-44.5935	23.8586	145.316	-52.3152	54.9201	178.505	-37.2518	35.385	
318	2.65	189.495	3.0269	47.0348	186.468	29.9096	29.3332	175.479	49.0573	3.36226	157.943	56.3358	-9.662	185.204	-14.6952	-25.5799	187.992	-6.98089	-53.4613	187.015	6.38639	-77.0573	159.104	-29.5321	-30.7068	156.648	-21.7526	-58.4827	143.005	3.38809	-84.3011	136.466	-22.882	-19.7178	126.156	-2.21734	-44.8972	119.626	29.7711	-41.3655	113.2	-13.2451	-4.06628	104.891	12.5449	-8.6097	116.807	35.7937	5.61982	149.677	-42.0323	26.2895	149.681	-47.6149	54.9005	177.514	-34.2016	36.239	
319	2.65833	185.39	12.6879	51.2411	173.962	36.3048	25.0604	161.431	52.3879	0.737269	139.856	55.007	-13.9267	186.04	-9.56714	-22.7262	190.91	-2.3698	-50.0514	190.565	14.8165	-76.59	166.595	-25.9614	-28.153	159.149	-18.7827	-61.847	145.092	5.03035	-79.5097	142.052	-23.8661	-25.2262	124.015	-8.5341	-44.0587	114.377	24.3535	-35.2417	116.629	-18.8219	-3.74128	105.637	5.57204	-11.1033	112.342	28.2522	5.04896	153.698	-40.3835	25.6798	152.881	-46.8718	57.9776	181.474	-27.5097	38.7838	
320	2.66667	177.683	22.3038	45.794	160.949	41.6717	23.9972	143.824	50.2519	-0.968284	123.189	43.569	-17.3229	189.208	-1.60629	-23.4203	195.758	9.20142	-51.4516	187.364	22.9655	-74.0218	174.438	-22.3742	-31.2388	167.27	-16.1104	-60.2392	143.323	9.90745	-74.8588	146.607	-28.234	-24.5332	128.612	-13.7937	-44.8546	114.047	15.3416	-34.3659	125.698	-25.4739	-7.18347	109.085	-5.44502	-17.0035	107.939	19.5185	4.18671	161.877	-36.1554	27.2536	159.916	-40.4955	58.4719	186.835	-16.8981	42.4555	
321	2.675	167.026	31.5455	48.9971	147.293	44.9066	22.068	129.053	48.3893	-5.91317	111.921	28.9196	-20.9894	191.755	11.8908	-20.7464	192.32	21.2539	-53.2518	179.226	35.818	-71.2067	180.675	-16.296	-30.6054	171.787	-9.5106	-59.2715	140.599	10.6659	-68.4768	161.039	-22.4096	-23.4319	140.208	-15.7321	-47.5002	121.09	5.53698	-37.435	134.761	-30.1416	-13.4869	114.826	-16.6617	-23.3529	107.274	7.19141	-4.05804	171.457	-31.4836	28.1996	170.243	-34.493	56.7298	185.876	-7.04447	40.7503	
322	2.68333	156.276	38.2094	45.8405	135.522	42.714	18.8796	118.379	41.0459	-9.16648	110.21	20.1464	-19.7089	187.63	24.0929	-19.0824	186.731	36.98	-51.8437	164.716	42.1645	-68.0935	187.739	0.833649	-29.1076	176.966	5.24537	-59.7532	137.816	17.0402	-61.7707	170.391	-17.1716	-25.6022	149.537	-11.9698	-48.1565	124.146	2.81347	-34.6975	148.161	-34.5282	-14.3763	130.994	-24.2766	-29.1087	109.172	-6.23385	-10.5038	176.48	-25.2916	27.1985	175.781	-26.9102	55.5794	184.071	5.38897	45.0187	
323	2.69167	144.393	40.2737	47.7689	125.168	41.5977	16.3079	112.054	35.2882	-7.1289	108.855	11.7167	-24.6545	182.444	39.748	-20.1507	174.991	47.2599	-51.7294	145.336	48.4077	-63.9643	188.364	14.1039	-24.7751	175.377	19.9673	-58.6009	139.578	19.3449	-58.3495	178.627	-5.91843	-20.7987	161.185	-2.28396	-48.8373	131.251	-2.01886	-37.9926	165.013	-27.4894	-13.2507	148.454	-21.8923	-34.3077	119.196	-14.0527	-23.9728	182.879	-7.84694	29.287	181.253	-12.3927	56.6912	181.867	21.5155	47.7483	
324	2.7	133.51	41.6468	45.0986	114.707	41.1975	13.7535	107.09	29.4797	-11.3155	110.083	8.10103	-28.2641	169.095	54.2326	-19.6498	156.273	59.0908	-51.5812	127.103	46.4836	-60.4409	183.598	33.112	-25.4422	170.067	34.0289	-57.7972	137.605	23.2761	-57.7011	183.248	10.022	-20.5484	171.488	4.82624	-48.7917	138.119	2.25252	-43.1	176.774	-11.5764	-11.9736	164.981	-16.0438	-35.8275	138.227	-16.6861	-35.5827	182.497	1.01507	30.8642	182.029	-1.21113	57.1901	172.906	33.6895	43.5334	
325	2.70833	123.075	39.7369	48.9528	105.941	36.1653	15.0212	99.8427	26.7084	-12.9777	110.026	7.15492	-32.3231	152.389	64.1941	-21.1168	142.117	62.4243	-49.2835	117.014	44.2244	-57.6788	173.826	49.5035	-25.3497	162.406	47.5651	-56.3917	134.736	25.8188	-59.3428	180.223	27.9912	-18.2144	174.972	25.1086	-47.1972	144.154	6.22104	-47.9806	184.723	0.0668459	-10.3341	178.83	-1.57235	-36.634	150.034	-9.20025	-43.0156	181.591	17.6366	29.4588	181.506	10.785	56.102	163.332	44.3623	44.9372	
326	2.71667	113.384	37.3575	49.9959	101.376	30.1939	14.862	98.3283	23.6128	-15.375	108.618	9.85141	-32.2542	142.105	67.122	-21.738	129.725	67.0509	-48.0657	107.667	47.3215	-58.8484	164.662	58.2576	-21.2147	155.37	56.5559	-56.67	129.955	31.012	-64.6019	176.192	39.1186	-15.0222	176.116	37.3609	-47.672	150.052	17.3002	-56.2853	187.47	14.9377	-7.92402	185.569	13.7305	-35.8569	168.447	2.16657	-51.9958	175.634	30.1159	31.3176	179.968	21.1287	59.3377	156.434	46.3254	49.179	
327	2.725	113.602	34.0598	46.0582	94.6094	28.0841	17.7596	93.5096	22.0768	-10.2882	103.755	12.4882	-35.6684	130.287	72.2867	-15.8667	120.458	73.1273	-46.8861	102.837	53.1045	-64.679	156.809	66.6766	-23.4029	147.876	68.5672	-53.3044	128.759	36.9078	-70.5597	173.274	50.8787	-16.7771	169.048	55.2885	-45.2998	152.262	32.473	-63.292	185.983	26.9744	-6.47181	189.997	28.4231	-32.6751	174.452	16.2819	-55.6657	175.642	37.4076	30.9234	174.458	33.7554	58.9629	149.248	52.8888	46.7689	
328	2.73333	109.611	32.4605	46.809	97.8029	25.9121	16.7409	88.8149	21.7301	-9.61765	89.1982	14.3896	-36.7949	121.84	74.2858	-14.8189	113.034	79.5664	-45.6634	101.474	66.2921	-68.7046	148.607	71.5598	-23.3047	136.657	71.8856	-56.7446	126.354	47.7032	-79.0156	163.515	62.3502	-17.3328	166.621	64.3242	-45.2288	152.665	45.2102	-72.32	180.35	37.5802	-5.44506	187.448	43.217	-33.1776	185.043	36.5389	-54.991	169.569	45.7149	31.6272	174.341	37.715	57.1373	141.541	55.033	46.2826	
329	2.74167	107.791	32.2277	46.6546	95.0196	24.1896	17.1299	81.9081	21.4553	-10.9858	84.0503	16.2366	-33.9343	119.45	73.1697	-15.7828	109.045	82.4681	-45.9878	103.826	77.8901	-74.2228	141.156	72.9178	-28.8373	133.41	72.8689	-59.8528	121.551	56.6173	-86.9404	162.455	61.2401	-17.0086	164.092	69.0728	-48.1885	156.489	62.8507	-73.3728	181.94	43.068	-5.76916	192.458	49.1671	-28.7974	189.471	46.6932	-55.4642	163.871	52.0887	30.5862	171.243	45.8973	56.4512	134.966	59.702	47.5661	
330	2.75	106.521	33.5272	40.8301	90.4203	25.3598	15.7886	82.5491	21.1131	-9.60357	74.6841	15.6357	-36.0738	117.32	71.1222	-20.5084	109.177	79.6582	-48.1459	102.781	83.6631	-71.1283	135.997	72.4409	-30.7669	131.945	73.3294	-57.843	126.538	65.9677	-88.9301	159.506	64.9269	-22.928	157.564	73.1118	-50.0618	158.236	72.1055	-77.1315	182.024	45.4354	-5.61975	190.22	53.8919	-26.9734	196.13	58.4461	-51.6191	161.51	54.2929	29.3526	169.42	49.5271	54.1718	132.212	58.5705	45.0139	
331	2.75833	102.15	30.0597	43.7441	89.7287	23.5094	11.357	79.9676	19.1164	-14.7567	70.484	12.5962	-33.7858	111.196	69.2192	-27.9051	103.642	74.8383	-52.8729	104.145	80.2533	-71.8667	133.864	70.9649	-33.4886	133.081	72.7251	-62.6247	125.655	72.2318	-91.538	158.575	63.7153	-22.2756	160.099	72.9151	-47.0352	163.049	78.4821	-71.9782	181.059	52.6202	-9.23063	191.095	60.349	-26.1246	200.975	67.4584	-43.8976	163.294	58.8866	25.8026	166.044	51.5032	56.1161	131.556	58.5881	38.0323	
332	2.76667	107.116	28.4125	38.3638	91.2159	18.3227	14.0989	78.7138	15.0332	-14.7507	71.2281	8.64515	-36.6918	109.772	63.6441	-30.8017	107.282	67.193	-54.5059	102.893	71.4879	-76.7695	133.8	68.657	-36.4846	130.846	72.9958	-63.6504	128.322	75.6046	-96.3312	160.161	67.4993	-27.124	161.846	74.3676	-48.2972	160.297	84.286	-74.6625	184.91	56.9529	-11.2216	191.998	65.6806	-28.9654	206.088	74.9283	-45.2534	161.708	63.1124	20.7721	162.666	56.2917	52.5425	129.588	57.7801	38.5532	
333	2.775	105.368	26.6351	36.336	92.2454	18.5299	9.43625	79.2445	10.5736	-13.9825	71.6684	4.02767	-32.6204	111.734	57.504	-34.5908	103.303	57.5241	-57.5339	99.0741	60.7542	-84.8694	137.201	67.6904	-39.3538	131.5	70.8169	-67.5201	130.383	73.1594	-96.7246	159.604	68.5343	-31.5855	161.865	76.7018	-51.946	164.225	83.9485	-73.7285	181.257	58.2993	-14.0249	191.263	64.4027	-26.2256	206.818	80.1769	-43.5454	160.431	63.3116	18.7776	159.872	59.9131	48.9385	127.349	60.2094	30.3262	
